# Blender v2.78 (sub 0) OBJ File: ''
# www.blender.org
v -0.004060 0.001464 1.015789
v -0.004060 2.001464 1.015789
v -0.004060 0.001464 -0.984211
v -0.004060 2.001464 -0.984211
v 1.995940 0.001464 1.015789
v 1.995940 0.001464 -0.984211
vn -1.0000 0.0000 0.0000
vn 0.0000 0.0000 1.0000
vn 0.7071 0.7071 0.0000
vn 0.0000 0.0000 -1.0000
vn 0.0000 -1.0000 0.0000
s off
f 2//1 3//1 1//1
f 2//2 1//2 5//2
f 2//3 6//3 4//3
f 3//4 4//4 6//4
f 6//5 1//5 3//5
f 2//1 4//1 3//1
f 2//3 5//3 6//3
f 6//5 5//5 1//5
