# Blender v2.79 (sub 0) OBJ File: ''
# www.blender.org
v 0.001862 2.000772 1.015789
v 0.001862 0.000772 -0.984211
v 0.001862 0.000772 1.015789
v 0.001862 2.000772 -0.984211
v 2.001862 0.000772 -0.984211
v 2.001862 2.000772 -0.984211
v 2.001862 0.000772 1.015789
v 2.001862 2.000772 1.015789
vt 0.623937 0.260044 1.000000
vt 0.398539 0.486322 1.000000
vt 0.398099 0.260484 1.000000
vt 0.624377 0.485882 1.000000
vt 0.398979 0.712161 1.000000
vt 0.624818 0.711721 1.000000
vt 0.399419 0.937999 1.000000
vt 0.623497 0.034206 1.000000
vt 0.397659 0.034645 1.000000
vt 0.173581 0.938439 1.000000
vt 0.173141 0.712601 1.000000
vt 0.850656 0.711281 1.000000
vt 0.625258 0.937559 1.000000
vt 0.851096 0.937119 1.000000
vn -1.0000 -0.0000 0.0000
vn 0.0000 0.0000 -1.0000
vn 1.0000 0.0000 0.0000
vn 0.0000 -0.0000 1.0000
vn 0.0000 -1.0000 -0.0000
vn 0.0000 1.0000 0.0000
s 1
f 1/1/1 2/2/1 3/3/1
f 4/4/2 5/5/2 2/2/2
f 6/6/3 7/7/3 5/5/3
f 8/8/4 3/3/4 7/9/4
f 5/5/5 3/10/5 2/11/5
f 4/12/6 8/13/6 6/6/6
f 1/1/1 4/4/1 2/2/1
f 4/4/2 6/6/2 5/5/2
f 6/6/3 8/13/3 7/7/3
f 8/8/4 1/1/4 3/3/4
f 5/5/5 7/7/5 3/10/5
f 4/12/6 1/14/6 8/13/6
